<?xml version="1.0" encoding="UTF-8"?>
<svg xmlns="http://www.w3.org/2000/svg" xmlns:xlink="http://www.w3.org/1999/xlink" width="150pt" height="150pt" viewBox="0 0 150 150" version="1.1">
<g id="surface52028618">
<path style=" stroke:none;fill-rule:nonzero;fill:rgb(100%,100%,100%);fill-opacity:1;" d="M 28.125 16.875 L 28.125 133.125 L 101.894531 133.125 L 98.144531 129.375 L 31.875 129.375 L 31.875 20.625 L 118.125 20.625 L 118.125 84.375 L 121.875 84.375 L 121.875 16.875 Z M 41.25 24.375 C 40.214844 24.375 39.375 25.214844 39.375 26.25 C 39.375 27.285156 40.214844 28.125 41.25 28.125 C 42.285156 28.125 43.125 27.285156 43.125 26.25 C 43.125 25.214844 42.285156 24.375 41.25 24.375 Z M 41.25 31.875 C 40.214844 31.875 39.375 32.714844 39.375 33.75 C 39.375 34.785156 40.214844 35.625 41.25 35.625 C 42.285156 35.625 43.125 34.785156 43.125 33.75 C 43.125 32.714844 42.285156 31.875 41.25 31.875 Z M 63.75 31.875 C 58.59375 31.875 54.375 36.09375 54.375 41.25 C 54.375 44.101562 55.691406 46.636719 57.71875 48.359375 C 53.511719 50.550781 50.625 54.945312 50.625 60 L 54.375 60 C 54.375 54.800781 58.550781 50.625 63.75 50.625 C 68.949219 50.625 73.125 54.800781 73.125 60 L 76.875 60 C 76.875 54.945312 73.988281 50.550781 69.78125 48.359375 C 71.808594 46.636719 73.125 44.101562 73.125 41.25 C 73.125 36.09375 68.90625 31.875 63.75 31.875 Z M 84.375 33.75 L 84.375 37.5 L 106.875 37.5 L 106.875 33.75 Z M 63.75 35.625 C 66.878906 35.625 69.375 38.121094 69.375 41.25 C 69.375 44.378906 66.878906 46.875 63.75 46.875 C 60.621094 46.875 58.125 44.378906 58.125 41.25 C 58.125 38.121094 60.621094 35.625 63.75 35.625 Z M 41.25 39.375 C 40.214844 39.375 39.375 40.214844 39.375 41.25 C 39.375 42.285156 40.214844 43.125 41.25 43.125 C 42.285156 43.125 43.125 42.285156 43.125 41.25 C 43.125 40.214844 42.285156 39.375 41.25 39.375 Z M 84.375 45 L 84.375 48.75 L 106.875 48.75 L 106.875 45 Z M 41.25 46.875 C 40.214844 46.875 39.375 47.714844 39.375 48.75 C 39.375 49.785156 40.214844 50.625 41.25 50.625 C 42.285156 50.625 43.125 49.785156 43.125 48.75 C 43.125 47.714844 42.285156 46.875 41.25 46.875 Z M 41.25 54.375 C 40.214844 54.375 39.375 55.214844 39.375 56.25 C 39.375 57.285156 40.214844 58.125 41.25 58.125 C 42.285156 58.125 43.125 57.285156 43.125 56.25 C 43.125 55.214844 42.285156 54.375 41.25 54.375 Z M 84.375 56.25 L 84.375 60 L 106.875 60 L 106.875 56.25 Z M 41.25 61.875 C 40.214844 61.875 39.375 62.714844 39.375 63.75 C 39.375 64.785156 40.214844 65.625 41.25 65.625 C 42.285156 65.625 43.125 64.785156 43.125 63.75 C 43.125 62.714844 42.285156 61.875 41.25 61.875 Z M 41.25 69.375 C 40.214844 69.375 39.375 70.214844 39.375 71.25 C 39.375 72.285156 40.214844 73.125 41.25 73.125 C 42.285156 73.125 43.125 72.285156 43.125 71.25 C 43.125 70.214844 42.285156 69.375 41.25 69.375 Z M 41.25 76.875 C 40.214844 76.875 39.375 77.714844 39.375 78.75 C 39.375 79.785156 40.214844 80.625 41.25 80.625 C 42.285156 80.625 43.125 79.785156 43.125 78.75 C 43.125 77.714844 42.285156 76.875 41.25 76.875 Z M 50.625 76.875 L 50.625 80.625 L 106.875 80.625 L 106.875 76.875 Z M 41.25 84.375 C 40.214844 84.375 39.375 85.214844 39.375 86.25 C 39.375 87.285156 40.214844 88.125 41.25 88.125 C 42.285156 88.125 43.125 87.285156 43.125 86.25 C 43.125 85.214844 42.285156 84.375 41.25 84.375 Z M 50.625 90 L 50.625 93.75 L 95.625 93.75 L 95.625 90 Z M 120 90 C 118.964844 90 118.125 90.839844 118.125 91.875 C 118.125 92.910156 118.964844 93.75 120 93.75 C 121.035156 93.75 121.875 92.910156 121.875 91.875 C 121.875 90.839844 121.035156 90 120 90 Z M 135 90 C 133.964844 90 133.125 90.839844 133.125 91.875 C 133.125 92.910156 133.964844 93.75 135 93.75 C 136.035156 93.75 136.875 92.910156 136.875 91.875 C 136.875 90.839844 136.035156 90 135 90 Z M 41.25 91.875 C 40.214844 91.875 39.375 92.714844 39.375 93.75 C 39.375 94.785156 40.214844 95.625 41.25 95.625 C 42.285156 95.625 43.125 94.785156 43.125 93.75 C 43.125 92.714844 42.285156 91.875 41.25 91.875 Z M 120 97.5 C 118.964844 97.5 118.125 98.339844 118.125 99.375 C 118.125 100.410156 118.964844 101.25 120 101.25 C 121.035156 101.25 121.875 100.410156 121.875 99.375 C 121.875 98.339844 121.035156 97.5 120 97.5 Z M 135 97.5 C 133.964844 97.5 133.125 98.339844 133.125 99.375 C 133.125 100.410156 133.964844 101.25 135 101.25 C 136.035156 101.25 136.875 100.410156 136.875 99.375 C 136.875 98.339844 136.035156 97.5 135 97.5 Z M 41.25 99.375 C 40.214844 99.375 39.375 100.214844 39.375 101.25 C 39.375 102.285156 40.214844 103.125 41.25 103.125 C 42.285156 103.125 43.125 102.285156 43.125 101.25 C 43.125 100.214844 42.285156 99.375 41.25 99.375 Z M 50.625 103.125 L 50.625 106.875 L 106.875 106.875 L 106.875 103.125 Z M 120 105 C 118.964844 105 118.125 105.839844 118.125 106.875 L 118.125 125.625 L 106.875 125.625 C 106.117188 125.625 105.433594 126.082031 105.144531 126.78125 C 104.851562 127.480469 105.011719 128.289062 105.550781 128.824219 L 126.175781 149.449219 C 126.90625 150.183594 128.09375 150.183594 128.824219 149.449219 L 149.449219 128.824219 C 149.8125 128.46875 150 127.988281 150 127.5 C 150 127.257812 149.953125 127.015625 149.855469 126.78125 C 149.566406 126.082031 148.882812 125.625 148.125 125.625 L 136.875 125.625 L 136.875 106.875 C 136.875 105.839844 136.035156 105 135 105 C 133.964844 105 133.125 105.839844 133.125 106.875 L 133.125 129.375 L 143.597656 129.375 L 127.5 145.472656 L 111.402344 129.375 L 121.875 129.375 L 121.875 106.875 C 121.875 105.839844 121.035156 105 120 105 Z M 41.25 106.875 C 40.214844 106.875 39.375 107.714844 39.375 108.75 C 39.375 109.785156 40.214844 110.625 41.25 110.625 C 42.285156 110.625 43.125 109.785156 43.125 108.75 C 43.125 107.714844 42.285156 106.875 41.25 106.875 Z M 41.25 114.375 C 40.214844 114.375 39.375 115.214844 39.375 116.25 C 39.375 117.285156 40.214844 118.125 41.25 118.125 C 42.285156 118.125 43.125 117.285156 43.125 116.25 C 43.125 115.214844 42.285156 114.375 41.25 114.375 Z M 50.625 116.25 L 50.625 120 L 95.625 120 L 95.625 116.25 Z M 41.25 121.875 C 40.214844 121.875 39.375 122.714844 39.375 123.75 C 39.375 124.785156 40.214844 125.625 41.25 125.625 C 42.285156 125.625 43.125 124.785156 43.125 123.75 C 43.125 122.714844 42.285156 121.875 41.25 121.875 Z M 41.25 121.875 "/>
</g>
</svg>
